<svg class="icon" style="vertical-align: middle;fill: currentColor;overflow: hidden;" viewBox="0 0 1024 1024" version="1.1" xmlns="http://www.w3.org/2000/svg" p-id="2095"><path d="M749.545364 66.586702L644.373646 5.156866c-9.115976-6.045984-21.389943-7.265981-32.217914-1.015997l-445.398808 257.155312A65.503825 65.503825 0 0 0 134.001011 318.032029v602.802387c0 18.905949 6.585982 31.937915 16.843955 36.991901l-0.016 0.024 106.241716 62.561833c7.991979 5.131986 18.63395 4.945987 30.319919-1.803996l434.154838-250.663329c24.813934-14.327962 44.92988-52.759859 44.92988-85.85177V93.946629c0-12.477967-7.163981-22.46994-16.929955-27.359927z m0 0" fill="#767676" p-id="2096"></path><path d="M721.545439 767.944825L287.390601 1018.608154c-24.819934 14.327962-44.92988-0.883998-44.92988-33.969909V479.953596l524.014598-302.539191v504.68665c0 33.085911-20.115946 71.523809-44.92988 85.84377z m0 0" fill="#AAAAAA" p-id="2097"></path><path d="M749.545364 66.586702L644.373646 5.156866c-9.115976-6.045984-21.389943-7.265981-32.217914-1.015997l-445.398808 257.155312A65.503825 65.503825 0 0 0 134.001011 318.032029v98.593736l108.45971 63.327831 524.014598-302.539191V93.946629c0-12.477967-7.163981-22.46994-16.929955-27.359927z m0 0" fill="#AC392D" p-id="2098"></path><path d="M877.959021 733.990916L443.804182 984.654245c-38.999896 22.51594-81.521782 49.913866-110.239705 3.83599l-28.187924-52.13986a515.55062 515.55062 0 0 1-62.921832-246.80534V479.953596l524.020598-302.539191v209.593439A515.484621 515.484621 0 0 0 829.399151 633.811184l3.79799 7.023981c13.271964 24.553934 30.155919 46.859875 48.935869 67.51582 8.439977 9.273975 10.305972 17.279954-4.171989 25.639931z m0 0" fill="#E3E3E3" p-id="2099"></path><path d="M242.460721 381.35986v98.593736l524.014598-302.539191V93.946629c0-23.531937-25.475932-38.241898-45.859877-26.47793L275.212634 324.624011A65.511825 65.511825 0 0 0 242.460721 381.35986z m0 0" fill="#E84C3D" p-id="2100"></path><path d="M607.453745 540.171435c18.263951 13.279964 27.193927 39.913893 27.193927 71.701808 0 31.313916-9.311975 68.485817-27.193927 102.625725-17.883952 34.679907-41.727888 60.375838-65.187826 73.919802l-0.749998 0.439999c-23.101938 13.335964-47.319873 15.381959-64.827827 1.139997-8.569977-5.445985-8.569977-23.367937 0-39.719894 7.811979-15.427959 21.599942-23.389937 29.803921-17.209954 9.679974 7.843979 22.34394 6.959981 35.773904-0.787997 12.663966-7.31398 25.693931-21.265943 35.381905-40.289893 9.695974-18.49995 14.91396-38.905896 14.91396-55.81185 0-17.875952-4.859987-31.945915-14.91396-39.079896-9.687974-7.795979-22.35994-6.467983-35.381905 1.055997-12.671966 7.31198-26.09393 21.047944-35.773904 40.023893-8.201978 15.655958-21.609942 23.399937-29.803921 17.209954-1.499996-1.115997-2.609993-2.943992-4.109989-4.059989 0-1.009997 0-1.493996-0.367999-1.283996 0-1.013997-0.373999-1.763995-0.739998-2.077995 0-1.499996-0.375999-2.249994-0.375999-3.257991 0-0.483999-0.367999-0.279999-0.367999-0.763998a31.895915 31.895915 0 0 1 0-8.453977l11.179971-135.115639c1.109997-9.093976 4.459988-17.993952 9.311975-25.243932 0.749998-0.913998 1.109997-1.123997 1.491996-1.865995 0.359999-0.695998 0.743998-0.913998 1.119997-1.617996 2.973992-3.70199 5.959984-6.437983 9.677974-8.585977l109.913706-63.45183c11.919968-6.883982 21.233943 0.156 21.233943 16.053957 0 14.92196-9.311975 33.203911-21.233943 40.085893l-91.647755 52.913858-4.477988 51.773861c8.187978-7.727979 16.759955-14.163962 24.969933-18.905949 23.459937-13.555964 47.303873-15.383959 65.187826-1.359996z m0 0" fill="#767676" p-id="2101"></path><path d="M393.164318 335.389983c0 12.439967-7.56198 26.891928-16.889955 32.273913-9.335975 5.389986-16.899955-0.327999-16.899955-12.765966 0-12.443967 7.56398-26.897928 16.899955-32.279913 9.327975-5.391986 16.889955 0.335999 16.889955 12.771966z m0 0M671.953572 174.406413c0 12.437967-7.56398 26.889928-16.891955 32.279914-9.335975 5.383986-16.897955-0.333999-16.897955-12.771966 0-12.445967 7.56198-26.889928 16.899955-32.279913 9.325975-5.383986 16.889955 0.333999 16.889955 12.771965z m0 0" fill="#E3E3E3" p-id="2102"></path></svg>