<svg class="icon" style="vertical-align: middle;fill: currentColor;overflow: hidden;" viewBox="0 0 1024 1024" version="1.1" xmlns="http://www.w3.org/2000/svg" p-id="2135"><path d="M849.011814 127.783073H174.988186c-17.777047 0-32.189518 14.412471-32.189518 32.191602v831.83164c0 17.781214 14.412471 32.193685 32.189518 32.193685h674.025712c17.777047 0 32.189518-14.412471 32.189518-32.193685V159.974675c-0.002083-17.77913-14.414554-32.191601-32.191602-32.191602z" fill="#DC8744" p-id="2136"></path><path d="M849.011814 108.878945H174.988186c-17.777047 0-32.189518 14.414554-32.189518 32.191601v831.831641c0 17.781214 14.412471 32.191601 32.189518 32.191601h674.025712c17.777047 0 32.189518-14.412471 32.189518-32.191601V141.070546c-0.002083-17.777047-14.414554-32.191601-32.191602-32.191601z" fill="#F6C358" p-id="2137"></path><path d="M202.773546 166.078829h618.473742v785.385902H202.773546z" fill="#EBF0F3" p-id="2138"></path><path d="M202.773546 147.45595h618.473742v785.385902H202.773546z" fill="#FFFFFF" p-id="2139"></path><path d="M715.32042 86.172741A33.687431 33.687431 0 0 0 682.499653 60.076961h-110.424775C572.076961 26.897862 545.179099 0 511.997917 0c-33.177016 0-60.074878 26.897862-60.074878 60.076961h-110.426859a33.687431 33.687431 0 0 0-32.818683 26.09578l-22.645787 97.935218h451.932414l-22.643704-97.935218z m-203.322503 2.779161c-15.945801 0-28.872858-12.927057-28.872858-28.874941s12.927057-28.874941 28.872858-28.874941c15.949968 0 28.877025 12.927057 28.877024 28.874941s-12.927057 28.874941-28.877024 28.874941z" fill="#DC8744" p-id="2140"></path><path d="M245.333876 236.799518h161.278838v161.278839H245.333876z" fill="#27A2DB" p-id="2141"></path><path d="M245.333876 367.220086h161.278838v30.868687H245.333876z" fill="#2D93BA" p-id="2142"></path><path d="M438.720982 247.572413h115.872681v26.602029h-115.872681z" fill="#44C4A1" p-id="2143"></path><path d="M438.720982 304.149381H778.603624v26.602029H438.720982zM438.720982 360.659683H778.603624v26.602029H438.720982z" fill="#E1E6E9" p-id="2144"></path><path d="M245.333876 479.134442h161.278838v161.278838H245.333876z" fill="#FCD462" p-id="2145"></path><path d="M245.333876 609.59876h161.278838v30.868687H245.333876z" fill="#F6C358" p-id="2146"></path><path d="M438.720982 489.961503h115.872681v26.602029h-115.872681z" fill="#E56353" p-id="2147"></path><path d="M438.720982 546.453055H778.603624v26.602029H438.720982zM438.720982 602.986273H778.603624v26.602029H438.720982z" fill="#E1E6E9" p-id="2148"></path><path d="M245.333876 721.492282h161.278838v161.278839H245.333876z" fill="#44C4A1" p-id="2149"></path><path d="M245.333876 851.9441h161.278838v30.868687H245.333876z" fill="#3EA69B" p-id="2150"></path><path d="M438.720982 732.265177h115.872681v26.602029h-115.872681z" fill="#27A2DB" p-id="2151"></path><path d="M438.720982 788.819228H778.603624v26.60203H438.720982zM438.720982 845.331614H778.603624v26.602029H438.720982z" fill="#E1E6E9" p-id="2152"></path></svg>